<?xml version="1.0" encoding="UTF-8"?>
<svg id="chloe" xmlns="http://www.w3.org/2000/svg" viewBox="0 0 200 200">
  <defs>
    <style>
      .cls-1 {
        fill: #fff;
      }

      .cls-2 {
        fill: none;
        stroke: #3b0700;
        stroke-width: .1px;
      }

      .cls-2, .cls-3 {
        stroke-miterlimit: 10;
      }

      .cls-4 {
        fill: #0085b8;
      }

      .cls-3 {
        fill: #020000;
        stroke: #000;
        stroke-width: .25px;
      }

      .cls-5 {
        fill: #f9bb85;
      }

      .cls-6 {
        fill: #ffbf84;
      }

      .cls-7 {
        fill: #050101;
      }

      .cls-8 {
        fill: #0a3d08;
      }
    </style>
  </defs>
  <path id="cheveux" class="cls-3" d="M122.33,131.31c-4.95,1.09-55.73,74.8-72.21,63.66-10.83-7.32,7.32-94.51,8.31-109.97,.6-8.7,5.7-19.19,12.9-25.09,24.4-19.8,75.2-16.2,80.6,26.2,48.53,200.35-49.76,73.35-61.8,55.5-6.1,4.9,17.8-6.1,17.8-6.1"/>
  <rect id="cou" class="cls-6" x="91.63" y="150.51" width="26.9" height="21.9"/>
  <path id="epaule" class="cls-4" d="M116.93,168.01c-5.2,.4-9.3,.9-12.6,1.5-3.3-.6-7.5-1.1-12.6-1.5-68-4.8-74.5,32.3-74.5,32.3H191.33s-6.5-37.1-74.4-32.3Z"/>
  <path id="oreille_gauche" class="cls-6" d="M65.73,103.11s-2.1-5.5-5.7,0c-3.6,5.5,0,15.1,0,15.1,0,0,2.6,4.5,5.7,0,3-4.5,0-15.1,0-15.1Z"/>
  <path id="oreille_droite" class="cls-6" d="M145.93,103.11s2.1-5.5,5.7,0c3.6,5.5,0,15.1,0,15.1,0,0-2.6,4.5-5.7,0-3-4.5,0-15.1,0-15.1Z"/>
  <path id="tete" class="cls-5" d="M110.23,63.11h-9.1c-19.6,0-35.4,15.3-35.4,34.1v20.5c0,18.9,15.9,34.1,35.4,34.1h9.1c19.6,0,35.4-15.3,35.4-34.1v-20.4c.1-18.9-15.8-34.2-35.4-34.2Z"/>
  <g id="oeil_gauche" data-name="oeil gauche">
    <path class="cls-1" d="M89.63,94.61c-5.2,0-9.5,3.6-9.5,8s4.3,8,9.5,8,9.5-3.6,9.5-8-4.2-8-9.5-8Zm0,12.5c-2.7,0-4.9-2-4.9-4.4s2.2-4.4,4.9-4.4,4.9,2,4.9,4.4c0,2.4-2.2,4.4-4.9,4.4Z"/>
    <path class="cls-8" d="M89.63,98.31c-2.7,0-4.9,2-4.9,4.4s2.2,4.4,4.9,4.4,4.9-2,4.9-4.4c0-2.4-2.2-4.4-4.9-4.4Zm-3,4.6c-.4,0-.8-.6-.8-1.2s.3-1.2,.8-1.2,.8,.6,.8,1.2-.4,1.2-.8,1.2Zm3.4,2.1c-1.3,0-2.3-1-2.3-2.3s1-2.3,2.3-2.3,2.3,1,2.3,2.3-1.1,2.3-2.3,2.3Z"/>
    <path class="cls-1" d="M86.63,100.41c-.4,0-.8,.6-.8,1.2s.3,1.2,.8,1.2,.8-.6,.8-1.2-.4-1.2-.8-1.2Z"/>
    <path d="M90.03,100.41c-1.3,0-2.3,1-2.3,2.3s1,2.3,2.3,2.3,2.3-1,2.3-2.3-1.1-2.3-2.3-2.3Z"/>
  </g>
  <g id="oeil_droite" data-name="oeil droite">
    <path class="cls-1" d="M121.13,94.61c-5.2,0-9.5,3.6-9.5,8s4.3,8,9.5,8,9.5-3.6,9.5-8-4.2-8-9.5-8Zm0,12.5c-2.7,0-4.9-2-4.9-4.4s2.2-4.4,4.9-4.4,4.9,2,4.9,4.4c0,2.4-2.2,4.4-4.9,4.4Z"/>
    <path id="_vvvvvvv" data-name=" vvvvvvv" class="cls-8" d="M121.13,98.31c-2.7,0-4.9,2-4.9,4.4s2.2,4.4,4.9,4.4,4.9-2,4.9-4.4c0-2.4-2.2-4.4-4.9-4.4Zm-3,4.6c-.4,0-.8-.6-.8-1.2s.3-1.2,.8-1.2,.8,.6,.8,1.2-.4,1.2-.8,1.2Zm3.4,2.1c-1.3,0-2.3-1-2.3-2.3s1-2.3,2.3-2.3,2.3,1,2.3,2.3-1.1,2.3-2.3,2.3Z"/>
    <path class="cls-1" d="M118.13,100.41c-.4,0-.8,.6-.8,1.2s.3,1.2,.8,1.2,.8-.6,.8-1.2-.4-1.2-.8-1.2Z"/>
    <path d="M121.53,100.41c-1.3,0-2.3,1-2.3,2.3s1,2.3,2.3,2.3,2.3-1,2.3-2.3-1.1-2.3-2.3-2.3Z"/>
  </g>
  <path id="bouche" class="cls-1" d="M121.53,135.51c-18,13.8-31.5,0-31.5,0"/>
  <path id="nez" class="cls-2" d="M105.13,110.51s-7.6,14.5-2.8,15.2c4.7,.8,5.5-.9,5.5-.9"/>
  <path id="sourcil_gauche" data-name="sourcil gauche" d="M99.13,95.01v-2.4s-12.2-4-19,2.4,3.1,0,3.1,0c0,0,6.1-3.6,15.9,0Z"/>
  <path id="sourcil_droite" data-name="sourcil droite" class="cls-7" d="M111.63,94.91v-2.4s12.2-4,19,2.4-3.1,0-3.1,0c0,0-6.1-3.6-15.9,0Z"/>
  <polygon id="meche" class="cls-3" points="65.73 93.22 71.24 93.22 147.49 93.22 141.54 68.41 128.22 61.01 99.13 56.08 75.77 64.57 62.75 84.29 65.73 93.22"/>
</svg>