<?xml version="1.0" encoding="UTF-8"?>
<svg id="kylian" xmlns="http://www.w3.org/2000/svg" viewBox="0 0 200 200">
  <defs>
    <style>
      .cls-1 {
        fill: #fff;
      }

      .cls-2 {
        fill: #f4bb82;
      }

      .cls-3, .cls-4, .cls-5, .cls-6 {
        stroke-miterlimit: 10;
      }

      .cls-3, .cls-5, .cls-6 {
        stroke: #000;
        stroke-width: .25px;
      }

      .cls-4 {
        stroke: #3b0700;
        stroke-width: .1px;
      }

      .cls-4, .cls-5 {
        fill: none;
      }

      .cls-6 {
        fill: #47230a;
      }

      .cls-7 {
        fill: #ffb6be;
      }

      .cls-8 {
        fill: #ffbf84;
      }

      .cls-9 {
        fill: #6d4a2f;
      }
    </style>
  </defs>
  <path id="cheveux" class="cls-3" d="M80.93,151.09c-22.05-4.23-55.56-44.22-33.84-75.61,2.98-9.08,26.48-20.08,35.81-22.45,2.77-.34,4.47-1.93,7.17-2.2,25.88-2.6,42.44,3.37,53.56,12.97,6.17,5.32,14.92,8.55,12.52,19.68,7.26,56.37-32.37,67.92-32.37,67.92"/>
  <rect id="cou" class="cls-8" x="87.35" y="151.4" width="26.9" height="21.9"/>
  <path id="epaule" class="cls-7" d="M112.55,168.7c-5.2,.4-9.3,.9-12.6,1.5-3.3-.6-7.5-1.1-12.6-1.5-68-4.8-74.4,32.3-74.4,32.3H187.05c-.1,0-6.5-37.1-74.5-32.3Z"/>
  <path id="oreille_gauche" class="cls-8" d="M60.45,103.8s-2.1-5.5-5.7,0c-3.6,5.5,0,15.1,0,15.1,0,0,2.6,4.5,5.7,0,3-4.5,0-15.1,0-15.1Z"/>
  <path id="oreille_droite" class="cls-8" d="M140.65,103.8s2.1-5.5,5.7,0c3.6,5.5,0,15.1,0,15.1,0,0-2.6,4.5-5.7,0-3-4.5,0-15.1,0-15.1Z"/>
  <path id="tete" class="cls-2" d="M104.95,63.8h-9.1c-19.6,0-35.4,15.3-35.4,34.1v20.5c0,18.9,15.9,34.1,35.4,34.1h9.1c19.6,0,35.4-15.3,35.4-34.1v-20.4c.1-18.9-15.8-34.2-35.4-34.2Z"/>
  <g id="oeil_gauche" data-name="oeil gauche">
    <path class="cls-1" d="M84.35,95.3c-5.2,0-9.5,3.6-9.5,8s4.3,8,9.5,8,9.5-3.6,9.5-8-4.2-8-9.5-8Zm0,12.5c-2.7,0-4.9-2-4.9-4.4s2.2-4.4,4.9-4.4,4.9,2,4.9,4.4c0,2.4-2.2,4.4-4.9,4.4Z"/>
    <path class="cls-9" d="M84.35,99c-2.7,0-4.9,2-4.9,4.4s2.2,4.4,4.9,4.4,4.9-2,4.9-4.4c0-2.4-2.2-4.4-4.9-4.4Zm-3,4.6c-.4,0-.8-.6-.8-1.2s.3-1.2,.8-1.2,.8,.6,.8,1.2-.4,1.2-.8,1.2Zm3.4,2.1c-1.3,0-2.3-1-2.3-2.3s1-2.3,2.3-2.3,2.3,1,2.3,2.3-1.1,2.3-2.3,2.3Z"/>
    <path class="cls-1" d="M81.35,101.1c-.4,0-.8,.6-.8,1.2s.3,1.2,.8,1.2,.8-.6,.8-1.2-.4-1.2-.8-1.2Z"/>
    <path d="M84.75,101.1c-1.3,0-2.3,1-2.3,2.3s1,2.3,2.3,2.3,2.3-1,2.3-2.3-1.1-2.3-2.3-2.3Z"/>
  </g>
  <g id="oeil_droite" data-name="oeil droite">
    <path class="cls-1" d="M115.85,95.3c-5.2,0-9.5,3.6-9.5,8s4.3,8,9.5,8,9.5-3.6,9.5-8-4.2-8-9.5-8Zm0,12.5c-2.7,0-4.9-2-4.9-4.4s2.2-4.4,4.9-4.4,4.9,2,4.9,4.4c0,2.4-2.2,4.4-4.9,4.4Z"/>
    <path id="_vvvvvvv" data-name=" vvvvvvv" class="cls-9" d="M115.85,99c-2.7,0-4.9,2-4.9,4.4s2.2,4.4,4.9,4.4,4.9-2,4.9-4.4c0-2.4-2.2-4.4-4.9-4.4Zm-3,4.6c-.4,0-.8-.6-.8-1.2s.3-1.2,.8-1.2,.8,.6,.8,1.2-.4,1.2-.8,1.2Zm3.4,2.1c-1.3,0-2.3-1-2.3-2.3s1-2.3,2.3-2.3,2.3,1,2.3,2.3-1.1,2.3-2.3,2.3Z"/>
    <path class="cls-1" d="M112.85,101.1c-.4,0-.8,.6-.8,1.2s.3,1.2,.8,1.2,.8-.6,.8-1.2-.4-1.2-.8-1.2Z"/>
    <path d="M116.25,101.1c-1.3,0-2.3,1-2.3,2.3s1,2.3,2.3,2.3,2.3-1,2.3-2.3-1.1-2.3-2.3-2.3Z"/>
  </g>
  <path id="bouche" class="cls-1" d="M116.25,136.2c-18,13.8-31.5,0-31.5,0"/>
  <path id="nez" class="cls-4" d="M99.85,111.2s-7.6,14.5-2.8,15.2c4.7,.8,5.5-.9,5.5-.9"/>
  <path id="sourcil_gauche" data-name="sourcil gauche" d="M93.85,95.7v-2.4s-12.2-4-19,2.4,3.1,0,3.1,0c0,0,6.1-3.6,15.9,0Z"/>
  <path id="sourcil_droite" data-name="sourcil droite" d="M106.35,95.6v-2.4s12.2-4,19,2.4-3.1,0-3.1,0c0,0-6.1-3.6-15.9,0Z"/>
  <g id="lunettes">
    <path class="cls-5" d="M71.25,107.5s11.8,18.1,24.7,0c12.9-18.1-37.1-18.1-24.7,0Z"/>
    <path class="cls-5" d="M130.65,102.4h0c1-12.8-37.9-11.1-26.8,5.1,0,0,11.8,18.1,24.7,0,1.3-1.9,2-3.6,2.1-5.1h0Z"/>
    <path class="cls-5" d="M98.05,102.3s1.8,1.9,3.8,0"/>
    <line class="cls-5" x1="69.25" y1="102.7" x2="60.45" y2="103.2"/>
    <line class="cls-5" x1="140.35" y1="103.9" x2="130.65" y2="102.7"/>
  </g>
  <path id="meche" d="M53.15,99c4.67-3.03,10.08-3.11,13.94-3.8,4.95-.87,13.06-2.66,16.58-4.42,7.85-3.91,14.55-5.68,21.4-2.27,20.13,10.04,37.53,14.07,37.61,9.92,29.06-5.49-40.49-49.16-42.13-45.24l-33.9,10.6-13.5,35.2Z"/>
  <path id="meche_2" class="cls-6" d="M59.2,87.67s30.45-2.17,36.03-7.46,29,1.26,40.25,7.46c11.25,6.2-3.27-4.88-5.36-6.33-12.19-8.48-32.55-7.38-47.02-8.41-17.26-1.23-23.9,14.74-23.9,14.74Z"/>
</svg>