<?xml version="1.0" encoding="UTF-8"?>
<svg id="paul" xmlns="http://www.w3.org/2000/svg" viewBox="0 0 200 200">
  <defs>
    <style>
      .cls-1 {
        fill: #fff;
      }

      .cls-2, .cls-3 {
        fill: #9e5a2d;
      }

      .cls-4 {
        stroke: #3b0700;
        stroke-width: .1px;
      }

      .cls-4, .cls-5 {
        fill: none;
      }

      .cls-4, .cls-5, .cls-3 {
        stroke-miterlimit: 10;
      }

      .cls-5, .cls-3 {
        stroke: #000;
        stroke-width: .25px;
      }

      .cls-6 {
        fill: #ffd29f;
      }

      .cls-7 {
        fill: #ffbf84;
      }

      .cls-8 {
        fill: #606060;
      }

      .cls-9 {
        fill: #6d4a2f;
      }
    </style>
  </defs>
  <path id="cheveux" class="cls-3" d="M79,151.91c-8.22,1.79-26.86-25.49-24.34-64.55,.56-8.73,5.56-21.51,12.81-27.4,24.4-19.84,75.68-15,81.07,27.4,6.99,54.99-21.68,64.55-21.68,64.55"/>
  <rect id="cou" class="cls-7" x="88.82" y="150.85" width="26.9" height="21.93"/>
  <path id="epaule" class="cls-8" d="M114.11,168.15c-5.15,.37-9.33,.86-12.64,1.47-3.32-.6-7.49-1.1-12.64-1.47-67.92-4.82-74.38,32.26-74.38,32.26H188.49s-6.46-37.08-74.38-32.26Z"/>
  <path id="oreille_gauche" class="cls-7" d="M61.96,103.21s-2.1-5.5-5.7,0c-3.6,5.5,0,15.1,0,15.1,0,0,2.6,4.5,5.7,0,3-4.5,0-15.1,0-15.1Z"/>
  <path id="oreille_droite" class="cls-7" d="M142.16,103.21s2.1-5.5,5.7,0c3.6,5.5,0,15.1,0,15.1,0,0-2.6,4.5-5.7,0-3-4.5,0-15.1,0-15.1Z"/>
  <path id="tete" class="cls-6" d="M106.46,63.21h-9.1c-19.6,0-35.4,15.3-35.4,34.1v20.5c0,18.9,15.9,34.1,35.4,34.1h9.1c19.6,0,35.4-15.3,35.4-34.1v-20.4c.1-18.9-15.8-34.2-35.4-34.2Z"/>
  <g id="oeil_gauche" data-name="oeil gauche">
    <path class="cls-1" d="M85.86,94.71c-5.2,0-9.5,3.6-9.5,8s4.3,8,9.5,8,9.5-3.6,9.5-8-4.2-8-9.5-8Zm0,12.5c-2.7,0-4.9-2-4.9-4.4s2.2-4.4,4.9-4.4,4.9,2,4.9,4.4c0,2.4-2.2,4.4-4.9,4.4Z"/>
    <path class="cls-9" d="M85.86,98.41c-2.7,0-4.9,2-4.9,4.4s2.2,4.4,4.9,4.4,4.9-2,4.9-4.4c0-2.4-2.2-4.4-4.9-4.4Zm-3,4.6c-.4,0-.8-.6-.8-1.2s.3-1.2,.8-1.2,.8,.6,.8,1.2-.4,1.2-.8,1.2Zm3.4,2.1c-1.3,0-2.3-1-2.3-2.3s1-2.3,2.3-2.3,2.3,1,2.3,2.3-1.1,2.3-2.3,2.3Z"/>
    <path class="cls-1" d="M82.86,100.51c-.4,0-.8,.6-.8,1.2s.3,1.2,.8,1.2,.8-.6,.8-1.2-.4-1.2-.8-1.2Z"/>
    <path d="M86.26,100.51c-1.3,0-2.3,1-2.3,2.3s1,2.3,2.3,2.3,2.3-1,2.3-2.3-1.1-2.3-2.3-2.3Z"/>
  </g>
  <g id="oeil_droite" data-name="oeil droite">
    <path class="cls-1" d="M117.36,94.71c-5.2,0-9.5,3.6-9.5,8s4.3,8,9.5,8,9.5-3.6,9.5-8-4.2-8-9.5-8Zm0,12.5c-2.7,0-4.9-2-4.9-4.4s2.2-4.4,4.9-4.4,4.9,2,4.9,4.4c0,2.4-2.2,4.4-4.9,4.4Z"/>
    <path id="_vvvvvvv" data-name=" vvvvvvv" class="cls-9" d="M117.36,98.41c-2.7,0-4.9,2-4.9,4.4s2.2,4.4,4.9,4.4,4.9-2,4.9-4.4c0-2.4-2.2-4.4-4.9-4.4Zm-3,4.6c-.4,0-.8-.6-.8-1.2s.3-1.2,.8-1.2,.8,.6,.8,1.2-.4,1.2-.8,1.2Zm3.4,2.1c-1.3,0-2.3-1-2.3-2.3s1-2.3,2.3-2.3,2.3,1,2.3,2.3-1.1,2.3-2.3,2.3Z"/>
    <path class="cls-1" d="M114.36,100.51c-.4,0-.8,.6-.8,1.2s.3,1.2,.8,1.2,.8-.6,.8-1.2-.4-1.2-.8-1.2Z"/>
    <path d="M117.76,100.51c-1.3,0-2.3,1-2.3,2.3s1,2.3,2.3,2.3,2.3-1,2.3-2.3-1.1-2.3-2.3-2.3Z"/>
  </g>
  <path id="bouche" class="cls-1" d="M117.76,135.61c-18,13.8-31.5,0-31.5,0"/>
  <path id="nez" class="cls-4" d="M101.36,110.61s-7.6,14.5-2.8,15.2c4.7,.8,5.5-.9,5.5-.9"/>
  <path id="sourcil_gauche" data-name="sourcil gauche" class="cls-9" d="M95.36,95.11v-2.4s-12.2-4-19,2.4,3.1,0,3.1,0c0,0,6.1-3.6,15.9,0Z"/>
  <path id="sourcil_droite" data-name="sourcil droite" class="cls-9" d="M107.86,95.01v-2.4s12.2-4,19,2.4-3.1,0-3.1,0c0,0-6.1-3.6-15.9,0Z"/>
  <g id="lunettes">
    <path class="cls-5" d="M72.76,106.91s11.8,18.1,24.7,0c12.9-18.1-37.1-18.1-24.7,0Z"/>
    <path class="cls-5" d="M132.16,101.81h0c1-12.8-37.9-11.1-26.8,5.1,0,0,11.8,18.1,24.7,0,1.3-1.9,2-3.6,2.1-5.1h0Z"/>
    <path class="cls-5" d="M99.56,101.71s1.8,1.9,3.8,0"/>
    <line class="cls-5" x1="70.76" y1="102.11" x2="61.96" y2="102.61"/>
    <line class="cls-5" x1="141.86" y1="103.31" x2="132.16" y2="102.11"/>
  </g>
  <path id="meche" class="cls-2" d="M68.17,78.02s45.58,15.5,73.18,13.46-39.29-38.88-39.29-38.88l-33.89,10.62v14.8Z"/>
</svg>