<?xml version="1.0" encoding="UTF-8"?>
<svg id="Sami" xmlns="http://www.w3.org/2000/svg" viewBox="0 0 200 200">
  <defs>
    <style>
      .cls-1 {
        fill: #fff;
      }

      .cls-2 {
        stroke: #3b0700;
        stroke-width: .1px;
      }

      .cls-2, .cls-3 {
        fill: none;
        stroke-miterlimit: 10;
      }

      .cls-3 {
        stroke: #000;
        stroke-width: .25px;
      }

      .cls-4 {
        fill: #ffa95a;
      }

      .cls-5 {
        fill: #f91919;
      }

      .cls-6 {
        fill: #ff9e57;
      }

      .cls-7 {
        fill: #6d4a2f;
      }
    </style>
  </defs>
  <rect id="cou" class="cls-6" x="86.5" y="150.4" width="26.9" height="21.9"/>
  <path id="epaule" class="cls-5" d="M111.8,167.7c-5.2,.4-9.3,.9-12.6,1.5-3.3-.6-7.5-1.1-12.6-1.5-68-4.8-74.5,32.3-74.5,32.3H186.2s-6.5-37.1-74.4-32.3Z"/>
  <path id="oreille_gauche" class="cls-6" d="M59.9,102.8s-2.1-5.5-5.7,0c-3.6,5.5,0,15.1,0,15.1,0,0,2.6,4.5,5.7,0,3-4.5,0-15.1,0-15.1Z"/>
  <path id="oreille_droite" class="cls-6" d="M140.1,102.8s2.1-5.5,5.7,0c3.6,5.5,0,15.1,0,15.1,0,0-2.6,4.5-5.7,0-3-4.5,0-15.1,0-15.1Z"/>
  <path id="tete" class="cls-4" d="M104.4,62.8h-9.1c-19.6,0-35.4,15.3-35.4,34.1v20.5c0,18.9,15.9,34.1,35.4,34.1h9.1c19.6,0,35.4-15.3,35.4-34.1v-20.4c.1-18.9-15.8-34.2-35.4-34.2Z"/>
  <g id="oeil_gauche" data-name="oeil gauche">
    <path class="cls-1" d="M83.8,94.3c-5.2,0-9.5,3.6-9.5,8s4.3,8,9.5,8,9.5-3.6,9.5-8-4.2-8-9.5-8Zm0,12.5c-2.7,0-4.9-2-4.9-4.4s2.2-4.4,4.9-4.4,4.9,2,4.9,4.4c0,2.4-2.2,4.4-4.9,4.4Z"/>
    <path class="cls-7" d="M83.8,98c-2.7,0-4.9,2-4.9,4.4s2.2,4.4,4.9,4.4,4.9-2,4.9-4.4c0-2.4-2.2-4.4-4.9-4.4Zm-3,4.6c-.4,0-.8-.6-.8-1.2s.3-1.2,.8-1.2,.8,.6,.8,1.2-.4,1.2-.8,1.2Zm3.4,2.1c-1.3,0-2.3-1-2.3-2.3s1-2.3,2.3-2.3,2.3,1,2.3,2.3-1.1,2.3-2.3,2.3Z"/>
    <path class="cls-1" d="M80.8,100.1c-.4,0-.8,.6-.8,1.2s.3,1.2,.8,1.2,.8-.6,.8-1.2-.4-1.2-.8-1.2Z"/>
    <path d="M84.2,100.1c-1.3,0-2.3,1-2.3,2.3s1,2.3,2.3,2.3,2.3-1,2.3-2.3-1.1-2.3-2.3-2.3Z"/>
  </g>
  <g id="oeil_droite" data-name="oeil droite">
    <path class="cls-1" d="M115.3,94.3c-5.2,0-9.5,3.6-9.5,8s4.3,8,9.5,8,9.5-3.6,9.5-8-4.2-8-9.5-8Zm0,12.5c-2.7,0-4.9-2-4.9-4.4s2.2-4.4,4.9-4.4,4.9,2,4.9,4.4c0,2.4-2.2,4.4-4.9,4.4Z"/>
    <path id="_vvvvvvv" data-name=" vvvvvvv" class="cls-7" d="M115.3,98c-2.7,0-4.9,2-4.9,4.4s2.2,4.4,4.9,4.4,4.9-2,4.9-4.4c0-2.4-2.2-4.4-4.9-4.4Zm-3,4.6c-.4,0-.8-.6-.8-1.2s.3-1.2,.8-1.2,.8,.6,.8,1.2-.4,1.2-.8,1.2Zm3.4,2.1c-1.3,0-2.3-1-2.3-2.3s1-2.3,2.3-2.3,2.3,1,2.3,2.3-1.1,2.3-2.3,2.3Z"/>
    <path class="cls-1" d="M112.3,100.1c-.4,0-.8,.6-.8,1.2s.3,1.2,.8,1.2,.8-.6,.8-1.2-.4-1.2-.8-1.2Z"/>
    <path d="M115.7,100.1c-1.3,0-2.3,1-2.3,2.3s1,2.3,2.3,2.3,2.3-1,2.3-2.3-1.1-2.3-2.3-2.3Z"/>
  </g>
  <path id="bouche" class="cls-1" d="M115.7,135.2c-18,13.8-31.5,0-31.5,0"/>
  <path id="nez" class="cls-2" d="M99.3,110.2s-7.6,14.5-2.8,15.2c4.7,.8,5.5-.9,5.5-.9"/>
  <path id="cheveux" class="cls-7" d="M59.9,100.1l8.2-25h63.5l8.2,25,3.2-42.8s-48.9-20.7-86.1,1.1"/>
  <path id="sourcil_gauche" data-name="sourcil gauche" class="cls-7" d="M93.3,94.7v-2.4s-12.2-4-19,2.4,3.1,0,3.1,0c0,0,6.1-3.6,15.9,0Z"/>
  <path id="sourcil_droite" data-name="sourcil droite" class="cls-7" d="M105.8,94.6v-2.4s12.2-4,19,2.4-3.1,0-3.1,0c0,0-6.1-3.6-15.9,0Z"/>
  <g id="lunettes">
    <path class="cls-3" d="M70.7,106.5s11.8,18.1,24.7,0c12.9-18.1-37.1-18.1-24.7,0Z"/>
    <path class="cls-3" d="M130.1,101.4h0c1-12.8-37.9-11.1-26.8,5.1,0,0,11.8,18.1,24.7,0,1.3-1.9,2-3.6,2.1-5.1h0Z"/>
    <path class="cls-3" d="M97.5,101.3s1.8,1.9,3.8,0"/>
    <line class="cls-3" x1="68.7" y1="101.7" x2="59.9" y2="102.2"/>
    <line class="cls-3" x1="139.8" y1="102.9" x2="130.1" y2="101.7"/>
  </g>
</svg>