<?xml version="1.0" encoding="UTF-8"?>
<svg id="sofiane" xmlns="http://www.w3.org/2000/svg" xmlns:xlink="http://www.w3.org/1999/xlink" viewBox="0 0 200 200">
  <defs>
    <style>
      .cls-1 {
        fill: url(#Dégradé_sans_nom_16);
      }

      .cls-2 {
        fill: #fff;
      }

      .cls-3 {
        fill: #ef5b5b;
      }

      .cls-4 {
        fill: none;
        stroke: #3b0700;
        stroke-miterlimit: 10;
        stroke-width: .1px;
      }

      .cls-5 {
        fill: #ffa95a;
      }

      .cls-6 {
        fill: url(#Dégradé_sans_nom_16-2);
      }

      .cls-7 {
        fill: #ff9e57;
      }

      .cls-8 {
        fill: #6d4a2f;
      }
    </style>
    <linearGradient id="Dégradé_sans_nom_16" data-name="Dégradé sans nom 16" x1="67.97" y1="102.34" x2="67.97" y2="76.98" gradientUnits="userSpaceOnUse">
      <stop offset="0" stop-color="#ffa95a"/>
      <stop offset=".05" stop-color="#f3a156"/>
      <stop offset=".28" stop-color="#c38248"/>
      <stop offset=".49" stop-color="#9e693d"/>
      <stop offset=".69" stop-color="#835835"/>
      <stop offset=".87" stop-color="#724d30"/>
      <stop offset="1" stop-color="#6d4a2f"/>
    </linearGradient>
    <linearGradient id="Dégradé_sans_nom_16-2" data-name="Dégradé sans nom 16" x1="-566.25" y1="102.34" x2="-566.25" y2="76.98" gradientTransform="translate(-428.45) rotate(-180) scale(1 -1)" xlink:href="#Dégradé_sans_nom_16"/>
  </defs>
  <rect id="cou" class="cls-7" x="88.85" y="151.26" width="26.9" height="21.93"/>
  <path id="epaule" class="cls-3" d="M114.14,168.56c-5.15,.37-9.33,.86-12.64,1.47-3.32-.6-7.49-1.1-12.64-1.47-67.92-4.82-74.38,32.26-74.38,32.26H188.52s-6.46-37.08-74.38-32.26Z"/>
  <path id="oreille_gauche" class="cls-7" d="M62.94,103.74s-2.1-5.5-5.7,0c-3.6,5.5,0,15.1,0,15.1,0,0,2.6,4.5,5.7,0,3-4.5,0-15.1,0-15.1Z"/>
  <path id="oreille_droite" class="cls-7" d="M143.14,103.74s2.1-5.5,5.7,0c3.6,5.5,0,15.1,0,15.1,0,0-2.6,4.5-5.7,0-3-4.5,0-15.1,0-15.1Z"/>
  <path id="tete" class="cls-5" d="M107.44,63.74h-9.1c-19.6,0-35.4,15.3-35.4,34.1v20.5c0,18.9,15.9,34.1,35.4,34.1h9.1c19.6,0,35.4-15.3,35.4-34.1v-20.4c.1-18.9-15.8-34.2-35.4-34.2Z"/>
  <g id="oeil_gauche" data-name="oeil gauche">
    <path class="cls-2" d="M86.84,95.24c-5.2,0-9.5,3.6-9.5,8s4.3,8,9.5,8,9.5-3.6,9.5-8-4.2-8-9.5-8Zm0,12.5c-2.7,0-4.9-2-4.9-4.4s2.2-4.4,4.9-4.4,4.9,2,4.9,4.4c0,2.4-2.2,4.4-4.9,4.4Z"/>
    <path class="cls-8" d="M86.84,98.94c-2.7,0-4.9,2-4.9,4.4s2.2,4.4,4.9,4.4,4.9-2,4.9-4.4c0-2.4-2.2-4.4-4.9-4.4Zm-3,4.6c-.4,0-.8-.6-.8-1.2s.3-1.2,.8-1.2,.8,.6,.8,1.2-.4,1.2-.8,1.2Zm3.4,2.1c-1.3,0-2.3-1-2.3-2.3s1-2.3,2.3-2.3,2.3,1,2.3,2.3-1.1,2.3-2.3,2.3Z"/>
    <path class="cls-2" d="M83.84,101.04c-.4,0-.8,.6-.8,1.2s.3,1.2,.8,1.2,.8-.6,.8-1.2-.4-1.2-.8-1.2Z"/>
    <path d="M87.24,101.04c-1.3,0-2.3,1-2.3,2.3s1,2.3,2.3,2.3,2.3-1,2.3-2.3-1.1-2.3-2.3-2.3Z"/>
  </g>
  <g id="oeil_droite" data-name="oeil droite">
    <path class="cls-2" d="M118.34,95.24c-5.2,0-9.5,3.6-9.5,8s4.3,8,9.5,8,9.5-3.6,9.5-8-4.2-8-9.5-8Zm0,12.5c-2.7,0-4.9-2-4.9-4.4s2.2-4.4,4.9-4.4,4.9,2,4.9,4.4c0,2.4-2.2,4.4-4.9,4.4Z"/>
    <path id="_vvvvvvv" data-name=" vvvvvvv" class="cls-8" d="M118.34,98.94c-2.7,0-4.9,2-4.9,4.4s2.2,4.4,4.9,4.4,4.9-2,4.9-4.4c0-2.4-2.2-4.4-4.9-4.4Zm-3,4.6c-.4,0-.8-.6-.8-1.2s.3-1.2,.8-1.2,.8,.6,.8,1.2-.4,1.2-.8,1.2Zm3.4,2.1c-1.3,0-2.3-1-2.3-2.3s1-2.3,2.3-2.3,2.3,1,2.3,2.3-1.1,2.3-2.3,2.3Z"/>
    <path class="cls-2" d="M115.34,101.04c-.4,0-.8,.6-.8,1.2s.3,1.2,.8,1.2,.8-.6,.8-1.2-.4-1.2-.8-1.2Z"/>
    <path d="M118.74,101.04c-1.3,0-2.3,1-2.3,2.3s1,2.3,2.3,2.3,2.3-1,2.3-2.3-1.1-2.3-2.3-2.3Z"/>
  </g>
  <path id="bouche" class="cls-2" d="M118.74,136.14c-18,13.8-31.5,0-31.5,0"/>
  <path id="nez" class="cls-4" d="M102.34,111.14s-7.6,14.5-2.8,15.2c4.7,.8,5.5-.9,5.5-.9"/>
  <path id="sourcil_gauche" data-name="sourcil gauche" class="cls-8" d="M96.34,95.64v-2.4s-12.2-4-19,2.4,3.1,0,3.1,0c0,0,6.1-3.6,15.9,0Z"/>
  <path id="sourcil_droite" data-name="sourcil droite" class="cls-8" d="M108.84,95.54v-2.4s12.2-4,19,2.4-3.1,0-3.1,0c0,0-6.1-3.6-15.9,0Z"/>
  <g id="cheveux">
    <path class="cls-1" d="M65.55,76.98h-.08s-4.92,11.74-2.53,25.36l10.71-25.26h-8.18s.03-.04,.08-.1Z"/>
    <path class="cls-6" d="M132.11,77.08l10.71,25.26c2.39-13.62-2.53-25.36-2.53-25.36h-.09s.06,.07,.09,.1h-8.18Z"/>
    <path class="cls-8" d="M140.29,77.08s-.06-.07-.09-.1c-39.58-44.54-72.92-2.26-74.65,0-.05,.06-.08,.1-.08,.1h74.82Z"/>
  </g>
</svg>