<?xml version="1.0" encoding="UTF-8"?>
<svg id="thomas" xmlns="http://www.w3.org/2000/svg" viewBox="0 0 200 200">
  <defs>
    <style>
      .cls-1 {
        fill: #fff;
      }

      .cls-2 {
        fill: #f2642c;
      }

      .cls-3 {
        fill: none;
        stroke: #3b0700;
        stroke-width: .1px;
      }

      .cls-3, .cls-4 {
        stroke-miterlimit: 10;
      }

      .cls-5 {
        fill: #ffd29f;
      }

      .cls-6 {
        fill: #21316d;
      }

      .cls-4 {
        stroke: #000;
        stroke-width: .25px;
      }

      .cls-4, .cls-7 {
        fill: #7f512f;
      }

      .cls-8 {
        fill: #ffbf84;
      }
    </style>
  </defs>
  <path id="cheveux" class="cls-4" d="M118.49,131.44c-8.2,1.8-63.51-6.61-61.01-45.61,.6-8.7,4.28-18.76,11.48-24.66,26.88-19.3,80.69-12.66,77.81,28.06-6.6,48.2-56.18,49-60.48,52.5-6.1,4.9,17.8-6.1,17.8-6.1"/>
  <rect id="cou" class="cls-8" x="87.81" y="150.88" width="26.9" height="21.93"/>
  <path id="epaule" class="cls-2" d="M113.09,168.18c-5.15,.37-9.33,.86-12.64,1.47-3.32-.6-7.49-1.1-12.64-1.47-67.92-4.82-74.38,32.26-74.38,32.26H187.48s-6.46-37.08-74.38-32.26Z"/>
  <path id="oreille_gauche" class="cls-8" d="M61.89,103.24s-2.1-5.5-5.7,0c-3.6,5.5,0,15.1,0,15.1,0,0,2.6,4.5,5.7,0,3-4.5,0-15.1,0-15.1Z"/>
  <path id="oreille_droite" class="cls-8" d="M142.09,103.24s2.1-5.5,5.7,0c3.6,5.5,0,15.1,0,15.1,0,0-2.6,4.5-5.7,0-3-4.5,0-15.1,0-15.1Z"/>
  <path id="tete" class="cls-5" d="M106.39,63.24h-9.1c-19.6,0-35.4,15.3-35.4,34.1v20.5c0,18.9,15.9,34.1,35.4,34.1h9.1c19.6,0,35.4-15.3,35.4-34.1v-20.4c.1-18.9-15.8-34.2-35.4-34.2Z"/>
  <g id="oeil_gauche" data-name="oeil gauche">
    <path class="cls-1" d="M85.79,94.74c-5.2,0-9.5,3.6-9.5,8s4.3,8,9.5,8,9.5-3.6,9.5-8-4.2-8-9.5-8Zm0,12.5c-2.7,0-4.9-2-4.9-4.4s2.2-4.4,4.9-4.4,4.9,2,4.9,4.4c0,2.4-2.2,4.4-4.9,4.4Z"/>
    <path class="cls-6" d="M85.79,98.44c-2.7,0-4.9,2-4.9,4.4s2.2,4.4,4.9,4.4,4.9-2,4.9-4.4c0-2.4-2.2-4.4-4.9-4.4Zm-3,4.6c-.4,0-.8-.6-.8-1.2s.3-1.2,.8-1.2,.8,.6,.8,1.2-.4,1.2-.8,1.2Zm3.4,2.1c-1.3,0-2.3-1-2.3-2.3s1-2.3,2.3-2.3,2.3,1,2.3,2.3-1.1,2.3-2.3,2.3Z"/>
    <path class="cls-1" d="M82.79,100.54c-.4,0-.8,.6-.8,1.2s.3,1.2,.8,1.2,.8-.6,.8-1.2-.4-1.2-.8-1.2Z"/>
    <path d="M86.19,100.54c-1.3,0-2.3,1-2.3,2.3s1,2.3,2.3,2.3,2.3-1,2.3-2.3-1.1-2.3-2.3-2.3Z"/>
  </g>
  <g id="oeil_droite" data-name="oeil droite">
    <path class="cls-1" d="M117.29,94.74c-5.2,0-9.5,3.6-9.5,8s4.3,8,9.5,8,9.5-3.6,9.5-8-4.2-8-9.5-8Zm0,12.5c-2.7,0-4.9-2-4.9-4.4s2.2-4.4,4.9-4.4,4.9,2,4.9,4.4c0,2.4-2.2,4.4-4.9,4.4Z"/>
    <path id="_vvvvvvv" data-name=" vvvvvvv" class="cls-6" d="M117.29,98.44c-2.7,0-4.9,2-4.9,4.4s2.2,4.4,4.9,4.4,4.9-2,4.9-4.4c0-2.4-2.2-4.4-4.9-4.4Zm-3,4.6c-.4,0-.8-.6-.8-1.2s.3-1.2,.8-1.2,.8,.6,.8,1.2-.4,1.2-.8,1.2Zm3.4,2.1c-1.3,0-2.3-1-2.3-2.3s1-2.3,2.3-2.3,2.3,1,2.3,2.3-1.1,2.3-2.3,2.3Z"/>
    <path class="cls-1" d="M114.29,100.54c-.4,0-.8,.6-.8,1.2s.3,1.2,.8,1.2,.8-.6,.8-1.2-.4-1.2-.8-1.2Z"/>
    <path d="M117.69,100.54c-1.3,0-2.3,1-2.3,2.3s1,2.3,2.3,2.3,2.3-1,2.3-2.3-1.1-2.3-2.3-2.3Z"/>
  </g>
  <path id="bouche" class="cls-1" d="M117.69,135.64c-18,13.8-31.5,0-31.5,0"/>
  <path id="nez" class="cls-3" d="M101.29,110.64s-7.6,14.5-2.8,15.2c4.7,.8,5.5-.9,5.5-.9"/>
  <path id="sourcil_gauche" data-name="sourcil gauche" class="cls-7" d="M95.29,95.14v-2.4s-12.2-4-19,2.4c-6.8,6.4,3.1,0,3.1,0,0,0,6.1-3.6,15.9,0Z"/>
  <path id="sourcil_droite" data-name="sourcil droite" class="cls-7" d="M107.79,95.04v-2.4s12.2-4,19,2.4-3.1,0-3.1,0c0,0-6.1-3.6-15.9,0Z"/>
  <path id="meche" class="cls-7" d="M61.89,100.64c-1.27-1.15,6.05-18.96,21.7-24.35,5.72-1.97,9.6,1.6,17.54,2,3.88,.2,8.67-2.97,13.16-2.43,10.81,1.31,21.75,8.81,27.5,24.93l3.28-13.69-7.8-17.29-16.16-11.76-32.63-2.27-15.7,6.52-11.91,18.57-1.97,11.76,2.98,8Z"/>
</svg>