<?xml version="1.0" encoding="UTF-8"?>
<svg id="youssef" xmlns="http://www.w3.org/2000/svg" xmlns:xlink="http://www.w3.org/1999/xlink" viewBox="0 0 200 200">
  <defs>
    <style>
      .cls-1 {
        fill: #fff;
      }

      .cls-2 {
        fill: #020100;
      }

      .cls-3 {
        fill: url(#Dégradé_sans_nom_31);
      }

      .cls-4 {
        fill: none;
        stroke: #3b0700;
        stroke-miterlimit: 10;
        stroke-width: .1px;
      }

      .cls-5 {
        opacity: .65;
      }

      .cls-6 {
        fill: #605757;
      }

      .cls-7 {
        fill: #ffa95a;
      }

      .cls-8 {
        fill: #070100;
        opacity: .66;
      }

      .cls-9 {
        fill: url(#Dégradé_sans_nom_31-2);
      }

      .cls-10 {
        fill: url(#Dégradé_sans_nom_31-3);
      }

      .cls-11 {
        mask: url(#mask);
      }

      .cls-12 {
        fill: #ff9e57;
      }

      .cls-13 {
        fill: #6d4a2f;
      }
    </style>
    <linearGradient id="Dégradé_sans_nom_31" data-name="Dégradé sans nom 31" x1="68.16" y1="100.27" x2="68.16" y2="125.63" gradientTransform="translate(0 202) scale(1 -1)" gradientUnits="userSpaceOnUse">
      <stop offset="0" stop-color="#ffa95a"/>
      <stop offset=".05" stop-color="#f3a157"/>
      <stop offset=".16" stop-color="#cc8749"/>
      <stop offset=".39" stop-color="#84572f"/>
      <stop offset=".59" stop-color="#4b321b"/>
      <stop offset=".77" stop-color="#22160c"/>
      <stop offset=".9" stop-color="#090603"/>
      <stop offset=".99" stop-color="#000"/>
    </linearGradient>
    <linearGradient id="Dégradé_sans_nom_31-2" data-name="Dégradé sans nom 31" x1="304.94" y1="100.27" x2="304.94" y2="125.63" gradientTransform="translate(443.52 202) rotate(-180)" xlink:href="#Dégradé_sans_nom_31"/>
    <linearGradient id="Dégradé_sans_nom_31-3" data-name="Dégradé sans nom 31" x1="305.06" y1="100.27" x2="305.06" y2="125.63" gradientTransform="translate(443.52 202) rotate(-180)" xlink:href="#Dégradé_sans_nom_31"/>
    <filter id="luminosity-noclip-2" data-name="luminosity-noclip" x="8394" y="-8292" width="-32766" height="32766" color-interpolation-filters="sRGB" filterUnits="userSpaceOnUse">
      <feFlood flood-color="#fff" result="bg"/>
      <feBlend in="SourceGraphic" in2="bg"/>
    </filter>
    <mask id="mask" x="8394" y="-8292" width="-32766" height="32766" maskUnits="userSpaceOnUse"/>
  </defs>
  <rect id="cou" class="cls-12" x="89.01" y="150.63" width="26.9" height="21.9"/>
  <path id="epaule" class="cls-6" d="M114.31,167.93c-5.2,.4-9.3,.9-12.6,1.5-3.3-.6-7.5-1.1-12.6-1.5-67.9-4.8-74.4,32.3-74.4,32.3H188.71s-6.5-37.1-74.4-32.3Z"/>
  <path id="oreille_gauche" class="cls-12" d="M63.11,103.13s-2.1-5.5-5.7,0c-3.6,5.5,0,15.1,0,15.1,0,0,2.6,4.5,5.7,0,3-4.5,0-15.1,0-15.1Z"/>
  <path id="oreille_droite" class="cls-12" d="M143.31,103.13s2.1-5.5,5.7,0c3.6,5.5,0,15.1,0,15.1,0,0-2.6,4.5-5.7,0-3-4.5,0-15.1,0-15.1Z"/>
  <path id="tete" class="cls-7" d="M107.61,63.13h-9.1c-19.6,0-35.4,15.3-35.4,34.1v20.5c0,18.9,15.9,34.1,35.4,34.1h9.1c19.6,0,35.4-15.3,35.4-34.1v-20.4c.1-18.9-15.8-34.2-35.4-34.2Z"/>
  <g id="oeil_gauche" data-name="oeil gauche">
    <path class="cls-1" d="M87.01,94.63c-5.2,0-9.5,3.6-9.5,8s4.3,8,9.5,8,9.5-3.6,9.5-8-4.2-8-9.5-8Zm0,12.5c-2.7,0-4.9-2-4.9-4.4s2.2-4.4,4.9-4.4,4.9,2,4.9,4.4c0,2.4-2.2,4.4-4.9,4.4Z"/>
    <path class="cls-13" d="M87.01,98.33c-2.7,0-4.9,2-4.9,4.4s2.2,4.4,4.9,4.4,4.9-2,4.9-4.4c0-2.4-2.2-4.4-4.9-4.4Zm-3,4.6c-.4,0-.8-.6-.8-1.2s.3-1.2,.8-1.2,.8,.6,.8,1.2-.4,1.2-.8,1.2Zm3.4,2.1c-1.3,0-2.3-1-2.3-2.3s1-2.3,2.3-2.3,2.3,1,2.3,2.3-1.1,2.3-2.3,2.3Z"/>
    <path class="cls-1" d="M84.01,100.43c-.4,0-.8,.6-.8,1.2s.3,1.2,.8,1.2,.8-.6,.8-1.2-.4-1.2-.8-1.2Z"/>
    <path d="M87.41,100.43c-1.3,0-2.3,1-2.3,2.3s1,2.3,2.3,2.3,2.3-1,2.3-2.3-1.1-2.3-2.3-2.3Z"/>
  </g>
  <g id="oeil_droite" data-name="oeil droite">
    <path class="cls-1" d="M118.51,94.63c-5.2,0-9.5,3.6-9.5,8s4.3,8,9.5,8,9.5-3.6,9.5-8-4.2-8-9.5-8Zm0,12.5c-2.7,0-4.9-2-4.9-4.4s2.2-4.4,4.9-4.4,4.9,2,4.9,4.4c0,2.4-2.2,4.4-4.9,4.4Z"/>
    <path id="_vvvvvvv" data-name=" vvvvvvv" class="cls-13" d="M118.51,98.33c-2.7,0-4.9,2-4.9,4.4s2.2,4.4,4.9,4.4,4.9-2,4.9-4.4c0-2.4-2.2-4.4-4.9-4.4Zm-3,4.6c-.4,0-.8-.6-.8-1.2s.3-1.2,.8-1.2,.8,.6,.8,1.2-.4,1.2-.8,1.2Zm3.4,2.1c-1.3,0-2.3-1-2.3-2.3s1-2.3,2.3-2.3,2.3,1,2.3,2.3-1.1,2.3-2.3,2.3Z"/>
    <path class="cls-1" d="M115.51,100.43c-.4,0-.8,.6-.8,1.2s.3,1.2,.8,1.2,.8-.6,.8-1.2-.4-1.2-.8-1.2Z"/>
    <path d="M118.91,100.43c-1.3,0-2.3,1-2.3,2.3s1,2.3,2.3,2.3,2.3-1,2.3-2.3-1.1-2.3-2.3-2.3Z"/>
  </g>
  <path id="bouche" class="cls-1" d="M118.91,135.53c-18,13.8-31.5,0-31.5,0"/>
  <path id="nez" class="cls-4" d="M102.51,110.53s-7.6,14.5-2.8,15.2c4.7,.8,5.5-.9,5.5-.9"/>
  <path id="sourcil_gauche" data-name="sourcil gauche" class="cls-2" d="M96.51,95.03v-2.4s-12.2-4-19,2.4,3.1,0,3.1,0c0,0,6.1-3.6,15.9,0Z"/>
  <path id="sourcil_droite" data-name="sourcil droite" d="M109.01,94.93v-2.4s12.2-4,19,2.4-3.1,0-3.1,0c0,0-6.1-3.6-15.9,0Z"/>
  <g id="cheveux">
    <path class="cls-3" d="M63.11,101.73l10.76-25.3h-8.21c-.53,1.13-4.82,12.4-2.55,25.3Z"/>
    <path d="M131.72,68.28l6.39,6.89-1.47,1.16h3.74c-2.49-7.83-6.82-10.32-12.37-12.2-19.43-6.58-29.55-3.79-49.09-.57-7.82,1.29-13.31,12.86-13.31,12.86h22.66l-4-.92,47.45-7.23Z"/>
    <path class="cls-9" d="M140.5,76.33h-.12s.02,.07,.03,.1h-3.9l-3.12,2.46,9.71,22.84c2.4-13.6-2.5-25.4-2.6-25.4Z"/>
    <path d="M136.51,76.43h3.9s-.02-.07-.03-.1h-3.74l-.13,.1Z"/>
    <path class="cls-10" d="M136.51,76.43h3.9s-.02-.07-.03-.1h-3.74l-.13,.1Z"/>
    <polygon points="136.64 76.33 138.11 75.17 131.72 68.28 84.27 75.5 88.27 76.43 116.85 83.03 119.26 83.03 131.52 80.36 133.39 78.89 136.51 76.43 136.64 76.33"/>
  </g>
  <g class="cls-11">
    <path id="moustache" class="cls-8" d="M86.37,133.74l-1.01-1.47s17.26-3.33,35.4,0l-.51,1.47"/>
  </g>
  <path id="barbe" class="cls-5" d="M86.87,149.72h32.29l-5.47,3.5s-15.34,1.61-20.74,0"/>
</svg>