<?xml version="1.0" encoding="utf-8"?>
<!-- Generator: Adobe Illustrator 27.0.0, SVG Export Plug-In . SVG Version: 6.00 Build 0)  -->
<svg version="1.1" id="chloe" xmlns="http://www.w3.org/2000/svg" xmlns:xlink="http://www.w3.org/1999/xlink" x="0px" y="0px"
	 viewBox="0 0 200 200" style="enable-background:new 0 0 200 200;" xml:space="preserve">
<style type="text/css">
	.st0{fill:#020000;stroke:#000000;stroke-width:0.25;stroke-miterlimit:10;}
	.st1{fill:#FFBF84;}
	.st2{fill:#0085B8;}
	.st3{fill:#F9BB85;}
	.st4{fill:#FFFFFF;}
	.st5{fill:#0A3D08;}
	.st6{fill:none;stroke:#3B0700;stroke-width:0.1;stroke-miterlimit:10;}
	.st7{fill:#050101;}
</style>
<path id="cheveux" class="st0" d="M116.5,131c-4.9,1.1-55.7,74.8-72.2,63.7c-10.8-7.3,7.3-94.5,8.3-110c0.6-8.7,5.7-19.2,12.9-25.1
	c24.4-19.8,75.2-16.2,80.6,26.2c48.5,200.4-49.8,73.4-61.8,55.5c-6.1,4.9,17.8-6.1,17.8-6.1"/>
<rect id="cou" x="85.8" y="150.2" class="st1" width="26.9" height="21.9"/>
<path id="epaule" class="st2" d="M111.1,167.7c-5.2,0.4-9.3,0.9-12.6,1.5c-3.3-0.6-7.5-1.1-12.6-1.5c-68-4.8-74.5,32.3-74.5,32.3
	h34.3h6.2H145h4.5h36C185.5,200,179,162.9,111.1,167.7z"/>
<path id="oreille_x5F_gauche" class="st1" d="M59.9,102.8c0,0-2.1-5.5-5.7,0c-3.6,5.5,0,15.1,0,15.1s2.6,4.5,5.7,0
	C62.9,113.4,59.9,102.8,59.9,102.8z"/>
<path id="oreille_x5F_droite" class="st1" d="M140.1,102.8c0,0,2.1-5.5,5.7,0c3.6,5.5,0,15.1,0,15.1s-2.6,4.5-5.7,0
	C137.1,113.4,140.1,102.8,140.1,102.8z"/>
<path id="tete" class="st3" d="M104.4,62.8h-9.1c-19.6,0-35.4,15.3-35.4,34.1v5.9v14.6c0,18.9,15.9,34.1,35.4,34.1h9.1
	c19.6,0,35.4-15.3,35.4-34.1V97C139.9,78.1,124,62.8,104.4,62.8z"/>
<g id="oeil_gauche">
	<path class="st4" d="M83.8,94.3c-5.2,0-9.5,3.6-9.5,8s4.3,8,9.5,8s9.5-3.6,9.5-8S89.1,94.3,83.8,94.3z M83.8,106.8
		c-2.7,0-4.9-2-4.9-4.4s2.2-4.4,4.9-4.4c2.7,0,4.9,2,4.9,4.4C88.7,104.8,86.5,106.8,83.8,106.8z"/>
	<path class="st5" d="M83.8,98c-2.7,0-4.9,2-4.9,4.4s2.2,4.4,4.9,4.4c2.7,0,4.9-2,4.9-4.4C88.7,100,86.5,98,83.8,98z M80.8,102.6
		c-0.4,0-0.8-0.6-0.8-1.2s0.3-1.2,0.8-1.2s0.8,0.6,0.8,1.2S81.2,102.6,80.8,102.6z M84.2,104.7c-1.3,0-2.3-1-2.3-2.3s1-2.3,2.3-2.3
		s2.3,1,2.3,2.3S85.4,104.7,84.2,104.7z"/>
	<path class="st4" d="M80.8,100.1c-0.4,0-0.8,0.6-0.8,1.2s0.3,1.2,0.8,1.2s0.8-0.6,0.8-1.2S81.2,100.1,80.8,100.1z"/>
	<path d="M84.2,100.1c-1.3,0-2.3,1-2.3,2.3s1,2.3,2.3,2.3s2.3-1,2.3-2.3S85.4,100.1,84.2,100.1z"/>
</g>
<g id="oeil_droite">
	<path class="st4" d="M115.3,94.3c-5.2,0-9.5,3.6-9.5,8s4.3,8,9.5,8s9.5-3.6,9.5-8S120.6,94.3,115.3,94.3z M115.3,106.8
		c-2.7,0-4.9-2-4.9-4.4s2.2-4.4,4.9-4.4c2.7,0,4.9,2,4.9,4.4C120.2,104.8,118,106.8,115.3,106.8z"/>
	<path id="_vvvvvvv" class="st5" d="M115.3,98c-2.7,0-4.9,2-4.9,4.4s2.2,4.4,4.9,4.4c2.7,0,4.9-2,4.9-4.4C120.2,100,118,98,115.3,98
		z M112.3,102.6c-0.4,0-0.8-0.6-0.8-1.2s0.3-1.2,0.8-1.2s0.8,0.6,0.8,1.2S112.7,102.6,112.3,102.6z M115.7,104.7
		c-1.3,0-2.3-1-2.3-2.3s1-2.3,2.3-2.3s2.3,1,2.3,2.3S116.9,104.7,115.7,104.7z"/>
	<path class="st4" d="M112.3,100.1c-0.4,0-0.8,0.6-0.8,1.2s0.3,1.2,0.8,1.2s0.8-0.6,0.8-1.2S112.7,100.1,112.3,100.1z"/>
	<path d="M115.7,100.1c-1.3,0-2.3,1-2.3,2.3s1,2.3,2.3,2.3s2.3-1,2.3-2.3S116.9,100.1,115.7,100.1z"/>
</g>
<path id="bouche" class="st4" d="M115.7,135.2c-18,13.8-31.5,0-31.5,0"/>
<path id="nez" class="st6" d="M99.3,110.2c0,0-7.6,14.5-2.8,15.2c4.7,0.8,5.5-0.9,5.5-0.9"/>
<path id="sourcil_gauche" d="M93.3,94.7v-2.4c0,0-12.2-4-19,2.4s3.1,0,3.1,0S83.5,91.1,93.3,94.7z"/>
<path id="sourcil_droite" class="st7" d="M105.8,94.6v-2.4c0,0,12.2-4,19,2.4s-3.1,0-3.1,0S115.6,91,105.8,94.6z"/>
<polygon id="meche" class="st0" points="59.9,92.9 65.4,92.9 141.7,92.9 135.7,68.1 122.4,60.7 93.3,55.8 69.9,64.3 56.9,84 "/>
</svg>
