<?xml version="1.0" encoding="utf-8"?>
<!-- Generator: Adobe Illustrator 27.0.0, SVG Export Plug-In . SVG Version: 6.00 Build 0)  -->
<svg version="1.1" id="youssef" xmlns="http://www.w3.org/2000/svg" xmlns:xlink="http://www.w3.org/1999/xlink" x="0px" y="0px"
	 viewBox="0 0 200 200" style="enable-background:new 0 0 200 200;" xml:space="preserve">
<style type="text/css">
	.st0{fill:#FF9E57;}
	.st1{fill:#605757;}
	.st2{fill:#FFA95A;}
	.st3{fill:#FFFFFF;}
	.st4{fill:#6D4A2F;}
	.st5{fill:none;stroke:#3B0700;stroke-width:0.1;stroke-miterlimit:10;}
	.st6{fill:#020100;}
	.st7{fill:url(#SVGID_1_);}
	.st8{fill:url(#SVGID_00000155137501471173558460000004843216412766473095_);}
	.st9{fill:url(#SVGID_00000102512129343138173460000014259882715595656630_);}
	.st10{filter:url(#Adobe_OpacityMaskFilter);}
	.st11{opacity:0.66;mask:url(#moustache_00000140732637753062361390000015616363848317718974_);fill:#070100;}
	.st12{opacity:0.65;}
</style>
<rect id="cou" x="85.8" y="150.3" class="st0" width="26.9" height="21.9"/>
<path id="epaule" class="st1" d="M111.1,167.6c-5.2,0.4-9.3,0.9-12.6,1.5c-3.3-0.6-7.5-1.1-12.6-1.5c-67.9-4.8-74.4,32.3-74.4,32.3
	h34.3H52h93h4.5h36C185.5,199.9,179,162.8,111.1,167.6z"/>
<path id="oreille_x5F_gauche" class="st0" d="M59.9,102.8c0,0-2.1-5.5-5.7,0c-3.6,5.5,0,15.1,0,15.1s2.6,4.5,5.7,0
	C62.9,113.4,59.9,102.8,59.9,102.8z"/>
<path id="oreille_x5F_droite" class="st0" d="M140.1,102.8c0,0,2.1-5.5,5.7,0c3.6,5.5,0,15.1,0,15.1s-2.6,4.5-5.7,0
	C137.1,113.4,140.1,102.8,140.1,102.8z"/>
<path id="tete" class="st2" d="M104.4,62.8h-9.1c-19.6,0-35.4,15.3-35.4,34.1v5.9v14.6c0,18.9,15.9,34.1,35.4,34.1h9.1
	c19.6,0,35.4-15.3,35.4-34.1V97C139.9,78.1,124,62.8,104.4,62.8z"/>
<g id="oeil_gauche">
	<path class="st3" d="M83.8,94.3c-5.2,0-9.5,3.6-9.5,8s4.3,8,9.5,8s9.5-3.6,9.5-8S89.1,94.3,83.8,94.3z M83.8,106.8
		c-2.7,0-4.9-2-4.9-4.4s2.2-4.4,4.9-4.4c2.7,0,4.9,2,4.9,4.4C88.7,104.8,86.5,106.8,83.8,106.8z"/>
	<path class="st4" d="M83.8,98c-2.7,0-4.9,2-4.9,4.4s2.2,4.4,4.9,4.4c2.7,0,4.9-2,4.9-4.4C88.7,100,86.5,98,83.8,98z M80.8,102.6
		c-0.4,0-0.8-0.6-0.8-1.2s0.3-1.2,0.8-1.2s0.8,0.6,0.8,1.2S81.2,102.6,80.8,102.6z M84.2,104.7c-1.3,0-2.3-1-2.3-2.3s1-2.3,2.3-2.3
		s2.3,1,2.3,2.3S85.4,104.7,84.2,104.7z"/>
	<path class="st3" d="M80.8,100.1c-0.4,0-0.8,0.6-0.8,1.2s0.3,1.2,0.8,1.2s0.8-0.6,0.8-1.2S81.2,100.1,80.8,100.1z"/>
	<path d="M84.2,100.1c-1.3,0-2.3,1-2.3,2.3s1,2.3,2.3,2.3s2.3-1,2.3-2.3S85.4,100.1,84.2,100.1z"/>
</g>
<g id="oeil_droite">
	<path class="st3" d="M115.3,94.3c-5.2,0-9.5,3.6-9.5,8s4.3,8,9.5,8s9.5-3.6,9.5-8S120.6,94.3,115.3,94.3z M115.3,106.8
		c-2.7,0-4.9-2-4.9-4.4s2.2-4.4,4.9-4.4c2.7,0,4.9,2,4.9,4.4C120.2,104.8,118,106.8,115.3,106.8z"/>
	<path id="_vvvvvvv" class="st4" d="M115.3,98c-2.7,0-4.9,2-4.9,4.4s2.2,4.4,4.9,4.4c2.7,0,4.9-2,4.9-4.4C120.2,100,118,98,115.3,98
		z M112.3,102.6c-0.4,0-0.8-0.6-0.8-1.2s0.3-1.2,0.8-1.2s0.8,0.6,0.8,1.2S112.7,102.6,112.3,102.6z M115.7,104.7
		c-1.3,0-2.3-1-2.3-2.3s1-2.3,2.3-2.3s2.3,1,2.3,2.3S116.9,104.7,115.7,104.7z"/>
	<path class="st3" d="M112.3,100.1c-0.4,0-0.8,0.6-0.8,1.2s0.3,1.2,0.8,1.2s0.8-0.6,0.8-1.2S112.7,100.1,112.3,100.1z"/>
	<path d="M115.7,100.1c-1.3,0-2.3,1-2.3,2.3s1,2.3,2.3,2.3s2.3-1,2.3-2.3S116.9,100.1,115.7,100.1z"/>
</g>
<path id="bouche" class="st3" d="M115.7,135.2c-18,13.8-31.5,0-31.5,0"/>
<path id="nez" class="st5" d="M99.3,110.2c0,0-7.6,14.5-2.8,15.2c4.7,0.8,5.5-0.9,5.5-0.9"/>
<path id="sourcil_gauche" class="st6" d="M93.3,94.7v-2.4c0,0-12.2-4-19,2.4s3.1,0,3.1,0S83.5,91.1,93.3,94.7z"/>
<path id="sourcil_droite" d="M105.8,94.6v-2.4c0,0,12.2-4,19,2.4s-3.1,0-3.1,0S115.6,91,105.8,94.6z"/>
<g id="cheveux">
	
		<linearGradient id="SVGID_1_" gradientUnits="userSpaceOnUse" x1="64.9481" y1="100.6" x2="64.9481" y2="125.9606" gradientTransform="matrix(1 0 0 -1 0 202)">
		<stop  offset="0" style="stop-color:#FFA95A"/>
		<stop  offset="5.021501e-02" style="stop-color:#F3A157"/>
		<stop  offset="0.1626" style="stop-color:#CD8849"/>
		<stop  offset="0.3901" style="stop-color:#855830"/>
		<stop  offset="0.5945" style="stop-color:#4C321B"/>
		<stop  offset="0.7684" style="stop-color:#23170C"/>
		<stop  offset="0.905" style="stop-color:#090603"/>
		<stop  offset="0.9874" style="stop-color:#000000"/>
	</linearGradient>
	<path class="st7" d="M59.9,101.4l10.8-25.3h-8.2C61.9,77.2,57.6,88.5,59.9,101.4z"/>
	<path d="M128.5,67.9l6.4,6.9l-1.5,1.2h3.7c-2.5-7.8-6.8-10.3-12.4-12.2c-19.4-6.6-29.6-3.8-49.1-0.6c-7.8,1.3-13.3,12.9-13.3,12.9
		h0h8.2h14.4l-4-0.9L128.5,67.9z"/>
	
		<linearGradient id="SVGID_00000080167142696235266740000012714125635943841190_" gradientUnits="userSpaceOnUse" x1="104.1546" y1="100.6" x2="104.1546" y2="125.9606" gradientTransform="matrix(-1 0 0 -1 239.5185 202)">
		<stop  offset="0" style="stop-color:#FFA95A"/>
		<stop  offset="5.021501e-02" style="stop-color:#F3A157"/>
		<stop  offset="0.1626" style="stop-color:#CD8849"/>
		<stop  offset="0.3901" style="stop-color:#855830"/>
		<stop  offset="0.5945" style="stop-color:#4C321B"/>
		<stop  offset="0.7684" style="stop-color:#23170C"/>
		<stop  offset="0.905" style="stop-color:#090603"/>
		<stop  offset="0.9874" style="stop-color:#000000"/>
	</linearGradient>
	<path style="fill:url(#SVGID_00000080167142696235266740000012714125635943841190_);" d="M137.3,76h-0.1
		C137.2,76,137.2,76.1,137.3,76l-4,0.1l-3.1,2.5l9.7,22.8C142.3,87.8,137.4,76,137.3,76z"/>
	<path d="M133.3,76.1h3.9c0,0,0-0.1,0-0.1h-3.7L133.3,76.1z"/>
	
		<linearGradient id="SVGID_00000051347312818090078220000003432113445700465053_" gradientUnits="userSpaceOnUse" x1="104.2706" y1="100.6" x2="104.2706" y2="125.9606" gradientTransform="matrix(-1 0 0 -1 239.5185 202)">
		<stop  offset="0" style="stop-color:#FFA95A"/>
		<stop  offset="5.021501e-02" style="stop-color:#F3A157"/>
		<stop  offset="0.1626" style="stop-color:#CD8849"/>
		<stop  offset="0.3901" style="stop-color:#855830"/>
		<stop  offset="0.5945" style="stop-color:#4C321B"/>
		<stop  offset="0.7684" style="stop-color:#23170C"/>
		<stop  offset="0.905" style="stop-color:#090603"/>
		<stop  offset="0.9874" style="stop-color:#000000"/>
	</linearGradient>
	<path style="fill:url(#SVGID_00000051347312818090078220000003432113445700465053_);" d="M133.3,76.1h3.9c0,0,0-0.1,0-0.1h-3.7
		L133.3,76.1z"/>
	<polygon points="133.4,76 134.9,74.8 128.5,67.9 81.1,75.2 85.1,76.1 113.6,82.7 116,82.7 128.3,80 130.2,78.6 133.3,76.1 	"/>
</g>
<defs>
	<filter id="Adobe_OpacityMaskFilter" filterUnits="userSpaceOnUse" x="82.2" y="130.5" width="35.4" height="2.9">
		<feFlood  style="flood-color:white;flood-opacity:1" result="back"/>
		<feBlend  in="SourceGraphic" in2="back" mode="normal"/>
	</filter>
</defs>
<mask maskUnits="userSpaceOnUse" x="82.2" y="130.5" width="35.4" height="2.9" id="moustache_00000075131289399040208230000016027374041731307417_">
	<g class="st10">
	</g>
</mask>
<path id="moustache" style="opacity:0.66;mask:url(#moustache_00000075131289399040208230000016027374041731307417_);fill:#070100;" d="
	M83.2,133.4l-1-1.5c0,0,17.3-3.3,35.4,0l-0.5,1.5"/>
<path id="barbe" class="st12" d="M83.7,149.4h32.3l-5.5,3.5c0,0-15.3,1.6-20.7,0"/>
</svg>
