<?xml version="1.0" encoding="UTF-8"?>
<svg id="adrien" xmlns="http://www.w3.org/2000/svg" viewBox="0 0 200 200">
  <defs>
    <style>
      .adrien-cls-1 {
        stroke: #000;
        stroke-width: .25px;
      }

      .adrien-cls-1, .adrien-cls-2 {
        fill: #66382b;
      }

      .adrien-cls-1, .adrien-cls-3 {
        stroke-miterlimit: 10;
      }

      .adrien-cls-4 {
        fill: #fff;
      }

      .adrien-cls-3 {
        fill: none;
        stroke: #3b0700;
        stroke-width: .1px;
      }

      .adrien-cls-5 {
        fill: #7c7c7c;
      }

      .adrien-cls-6 {
        fill: #ffd29f;
      }

      .adrien-cls-7 {
        fill: #ffbf84;
      }

      .adrien-cls-8 {
        fill: #0a3d08;
      }
    </style>
  </defs>
  <path id="cheveux" class="adrien-cls-1" d="M119.34,131.04c-8.2,1.8-64.5-7.7-62-46.7,.6-8.7,3.8-18.8,11-24.7,24.4-19.8,75.2-16.2,80.6,26.2-6.6,48.2-57.5,52-61.8,55.5-6.1,4.9,17.8-6.1,17.8-6.1"/>
  <rect id="cou" class="adrien-cls-7" x="88.66" y="150.24" width="26.9" height="21.93"/>
  <path id="epaule" class="adrien-cls-5" d="M113.94,167.74c-5.15,.37-9.33,.86-12.64,1.47-3.32-.6-7.49-1.1-12.64-1.47-67.92-4.82-74.38,32.26-74.38,32.26H188.33s-6.46-37.08-74.38-32.26Z"/>
  <path id="oreille_gauche" class="adrien-cls-7" d="M62.74,102.84s-2.1-5.5-5.7,0c-3.6,5.5,0,15.1,0,15.1,0,0,2.6,4.5,5.7,0,3-4.5,0-15.1,0-15.1Z"/>
  <path id="oreille_droite" class="adrien-cls-7" d="M142.94,102.84s2.1-5.5,5.7,0c3.6,5.5,0,15.1,0,15.1,0,0-2.6,4.5-5.7,0-3-4.5,0-15.1,0-15.1Z"/>
  <path id="tete" class="adrien-cls-6" d="M107.24,62.84h-9.1c-19.6,0-35.4,15.3-35.4,34.1v20.5c0,18.9,15.9,34.1,35.4,34.1h9.1c19.6,0,35.4-15.3,35.4-34.1v-20.4c.1-18.9-15.8-34.2-35.4-34.2Z"/>
  <g id="oeil_gauche" data-name="oeil gauche">
    <path class="adrien-cls-4" d="M86.64,94.34c-5.2,0-9.5,3.6-9.5,8s4.3,8,9.5,8,9.5-3.6,9.5-8-4.2-8-9.5-8Zm0,12.5c-2.7,0-4.9-2-4.9-4.4s2.2-4.4,4.9-4.4,4.9,2,4.9,4.4c0,2.4-2.2,4.4-4.9,4.4Z"/>
    <path class="adrien-cls-8" d="M86.64,98.04c-2.7,0-4.9,2-4.9,4.4s2.2,4.4,4.9,4.4,4.9-2,4.9-4.4c0-2.4-2.2-4.4-4.9-4.4Zm-3,4.6c-.4,0-.8-.6-.8-1.2s.3-1.2,.8-1.2,.8,.6,.8,1.2-.4,1.2-.8,1.2Zm3.4,2.1c-1.3,0-2.3-1-2.3-2.3s1-2.3,2.3-2.3,2.3,1,2.3,2.3-1.1,2.3-2.3,2.3Z"/>
    <path class="adrien-cls-4" d="M83.64,100.14c-.4,0-.8,.6-.8,1.2s.3,1.2,.8,1.2,.8-.6,.8-1.2-.4-1.2-.8-1.2Z"/>
    <path d="M87.04,100.14c-1.3,0-2.3,1-2.3,2.3s1,2.3,2.3,2.3,2.3-1,2.3-2.3-1.1-2.3-2.3-2.3Z"/>
  </g>
  <g id="oeil_droite" data-name="oeil droite">
    <path class="adrien-cls-4" d="M118.14,94.34c-5.2,0-9.5,3.6-9.5,8s4.3,8,9.5,8,9.5-3.6,9.5-8-4.2-8-9.5-8Zm0,12.5c-2.7,0-4.9-2-4.9-4.4s2.2-4.4,4.9-4.4,4.9,2,4.9,4.4c0,2.4-2.2,4.4-4.9,4.4Z"/>
    <path id="_vvvvvvv" data-name=" vvvvvvv" class="adrien-cls-8" d="M118.14,98.04c-2.7,0-4.9,2-4.9,4.4s2.2,4.4,4.9,4.4,4.9-2,4.9-4.4c0-2.4-2.2-4.4-4.9-4.4Zm-3,4.6c-.4,0-.8-.6-.8-1.2s.3-1.2,.8-1.2,.8,.6,.8,1.2-.4,1.2-.8,1.2Zm3.4,2.1c-1.3,0-2.3-1-2.3-2.3s1-2.3,2.3-2.3,2.3,1,2.3,2.3-1.1,2.3-2.3,2.3Z"/>
    <path class="adrien-cls-4" d="M115.14,100.14c-.4,0-.8,.6-.8,1.2s.3,1.2,.8,1.2,.8-.6,.8-1.2-.4-1.2-.8-1.2Z"/>
    <path d="M118.54,100.14c-1.3,0-2.3,1-2.3,2.3s1,2.3,2.3,2.3,2.3-1,2.3-2.3-1.1-2.3-2.3-2.3Z"/>
  </g>
  <path id="bouche" class="adrien-cls-4" d="M118.54,135.24c-18,13.8-31.5,0-31.5,0"/>
  <path id="nez" class="adrien-cls-3" d="M102.14,110.24s-7.6,14.5-2.8,15.2c4.7,.8,5.5-.9,5.5-.9"/>
  <path id="sourcil_gauche" data-name="sourcil gauche" class="adrien-cls-2" d="M96.14,94.74v-2.4s-12.2-4-19,2.4,3.1,0,3.1,0c0,0,6.1-3.6,15.9,0Z"/>
  <path id="sourcil_droite" data-name="sourcil droite" class="adrien-cls-2" d="M108.64,94.64v-2.4s12.2-4,19,2.4-3.1,0-3.1,0c0,0-6.1-3.6-15.9,0Z"/>
  <path id="meche" class="adrien-cls-2" d="M142.64,95.34s-14-25.3-26.7-26.5c-.2,0-.5-.1-1.6-.2-4.5-.4-17.4-3.5-22.8-1.7-1.9,.6-7.6,5.6-8.7,5.1-12.5-6.2-17.8,24.3-20.1,24.9-1.1,.3-2-13.3-2-13.3l10.9-16.6,15.5-6.2,19.2-1.9h10.8l11.7,4,9.1,5.8,6.6,14-1.9,12.6Z"/>
</svg>