<?xml version="1.0" encoding="UTF-8"?>
<svg id="leopold" xmlns="http://www.w3.org/2000/svg" viewBox="0 0 200 200">
  <defs>
    <style>
      .leopold-cls--1 {
        fill: #fff;
      }

      .leopold-cls--2 {
        fill: #670075;
      }

      .leopold-cls--3 {
        stroke: #3b0700;
        stroke-width: .1px;
      }

      .leopold-cls--3, .leopold-cls--4, .leopold-cls--5 {
        stroke-miterlimit: 10;
      }

      .leopold-cls--3, .leopold-cls--5 {
        fill: none;
      }

      .leopold-cls--4, .leopold-cls--5 {
        stroke: #000;
        stroke-width: .25px;
      }

      .leopold-cls--4, .leopold-cls--6 {
        fill: #331711;
      }

      .leopold-cls--7 {
        fill: #ffd29f;
      }

      .leopold-cls--8 {
        fill: #ffbf84;
      }

      .leopold-cls--9 {
        fill: #6d4a2f;
      }
    </style>
  </defs>
  <path id="cheveux" class="leopold-cls--4" d="M117.55,131.23c-8.2,1.8-68.9-6.18-66.4-45.18,.6-8.7,.6-23.44,7.8-29.34,26.84-21.41,94.91-16.63,93.4,30.33-6.6,48.2-62.7,50.99-67,54.49-6.1,4.9,17.8-6.1,17.8-6.1"/>
  <rect id="cou" class="leopold-cls--8" x="87.35" y="150.43" width="26.9" height="21.9"/>
  <path id="epaule" class="leopold-cls--2" d="M112.55,167.83c-5.2,.4-9.3,.9-12.6,1.5-3.3-.6-7.5-1.1-12.6-1.5-67.9-4.8-74.4,32.3-74.4,32.3H187.05c-.1,0-6.5-37.1-74.5-32.3Z"/>
  <path id="oreille_gauche" class="leopold-cls--8" d="M60.95,103.03s-2.1-5.5-5.7,0c-3.6,5.5,0,15.1,0,15.1,0,0,2.6,4.5,5.7,0,3-4.5,0-15.1,0-15.1Z"/>
  <path id="oreille_droite" class="leopold-cls--8" d="M141.15,103.03s2.1-5.5,5.7,0c3.6,5.5,0,15.1,0,15.1,0,0-2.6,4.5-5.7,0-3-4.5,0-15.1,0-15.1Z"/>
  <path id="tete" class="leopold-cls--7" d="M105.45,63.03h-9.1c-19.6,0-35.4,15.3-35.4,34.1v20.5c0,18.9,15.9,34.1,35.4,34.1h9.1c19.6,0,35.4-15.3,35.4-34.1v-20.4c.1-18.9-15.8-34.2-35.4-34.2Z"/>
  <g id="oeil_gauche" data-name="oeil gauche">
    <path class="leopold-cls--1" d="M84.85,94.53c-5.2,0-9.5,3.6-9.5,8s4.3,8,9.5,8,9.5-3.6,9.5-8-4.2-8-9.5-8Zm0,12.5c-2.7,0-4.9-2-4.9-4.4s2.2-4.4,4.9-4.4,4.9,2,4.9,4.4c0,2.4-2.2,4.4-4.9,4.4Z"/>
    <path class="leopold-cls--9" d="M84.85,98.23c-2.7,0-4.9,2-4.9,4.4s2.2,4.4,4.9,4.4,4.9-2,4.9-4.4c0-2.4-2.2-4.4-4.9-4.4Zm-3,4.6c-.4,0-.8-.6-.8-1.2s.3-1.2,.8-1.2,.8,.6,.8,1.2-.4,1.2-.8,1.2Zm3.4,2.1c-1.3,0-2.3-1-2.3-2.3s1-2.3,2.3-2.3,2.3,1,2.3,2.3-1.1,2.3-2.3,2.3Z"/>
    <path class="leopold-cls--1" d="M81.85,100.33c-.4,0-.8,.6-.8,1.2s.3,1.2,.8,1.2,.8-.6,.8-1.2-.4-1.2-.8-1.2Z"/>
    <path d="M85.25,100.33c-1.3,0-2.3,1-2.3,2.3s1,2.3,2.3,2.3,2.3-1,2.3-2.3-1.1-2.3-2.3-2.3Z"/>
  </g>
  <g id="oeil_droite" data-name="oeil droite">
    <path class="leopold-cls--1" d="M116.35,94.53c-5.2,0-9.5,3.6-9.5,8s4.3,8,9.5,8,9.5-3.6,9.5-8-4.2-8-9.5-8Zm0,12.5c-2.7,0-4.9-2-4.9-4.4s2.2-4.4,4.9-4.4,4.9,2,4.9,4.4c0,2.4-2.2,4.4-4.9,4.4Z"/>
    <path id="_vvvvvvv" data-name=" vvvvvvv" class="leopold-cls--9" d="M116.35,98.23c-2.7,0-4.9,2-4.9,4.4s2.2,4.4,4.9,4.4,4.9-2,4.9-4.4c0-2.4-2.2-4.4-4.9-4.4Zm-3,4.6c-.4,0-.8-.6-.8-1.2s.3-1.2,.8-1.2,.8,.6,.8,1.2-.4,1.2-.8,1.2Zm3.4,2.1c-1.3,0-2.3-1-2.3-2.3s1-2.3,2.3-2.3,2.3,1,2.3,2.3-1.1,2.3-2.3,2.3Z"/>
    <path class="leopold-cls--1" d="M113.35,100.33c-.4,0-.8,.6-.8,1.2s.3,1.2,.8,1.2,.8-.6,.8-1.2-.4-1.2-.8-1.2Z"/>
    <path d="M116.75,100.33c-1.3,0-2.3,1-2.3,2.3s1,2.3,2.3,2.3,2.3-1,2.3-2.3-1.1-2.3-2.3-2.3Z"/>
  </g>
  <path id="bouche" class="leopold-cls--1" d="M116.75,135.43c-18,13.8-31.5,0-31.5,0"/>
  <path id="nez" class="leopold-cls--3" d="M100.35,110.43s-7.6,14.5-2.8,15.2c4.7,.8,5.5-.9,5.5-.9"/>
  <path id="sourcil_gauche" data-name="sourcil gauche" class="leopold-cls--6" d="M94.35,94.93v-2.4s-12.2-4-19,2.4,3.1,0,3.1,0c0,0,6.1-3.6,15.9,0Z"/>
  <path id="sourcil_droite" data-name="sourcil droite" class="leopold-cls--6" d="M106.85,94.83v-2.4s12.2-4,19,2.4c6.8,6.4-3.1,0-3.1,0,0,0-6.1-3.6-15.9,0Z"/>
  <g id="lunettes">
    <path class="leopold-cls--5" d="M71.75,106.73s11.8,18.1,24.7,0c12.9-18.1-37.1-18.1-24.7,0Z"/>
    <path class="leopold-cls--5" d="M131.15,101.63h0c1-12.8-37.9-11.1-26.8,5.1,0,0,11.8,18.1,24.7,0,1.3-1.9,2-3.6,2.1-5.1h0Z"/>
    <path class="leopold-cls--5" d="M98.55,101.53s1.8,1.9,3.8,0"/>
    <line class="leopold-cls--5" x1="69.75" y1="101.93" x2="60.95" y2="102.43"/>
    <line class="leopold-cls--5" x1="140.85" y1="103.13" x2="131.15" y2="101.93"/>
  </g>
  <path id="meche" class="leopold-cls--6" d="M140.85,95.53s-14-25.3-26.7-26.5c-.2,0-.5-.1-1.6-.2-4.5-.4-17.4-3.5-22.8-1.7-1.9,.6-7.6,5.6-8.7,5.1-12.5-6.2-17.8,24.3-20.1,24.9-1.1,.3-2-13.3-2-13.3l10.9-16.6,15.5-6.2,19.2-1.9h10.8l11.7,4,9.1,5.8,6.6,14-1.9,12.6Z"/>
</svg>