<?xml version="1.0" encoding="UTF-8"?>
<svg id="maxime" xmlns="http://www.w3.org/2000/svg" viewBox="0 0 200 200">
  <defs>
    <style>
      .maxime-cls--1 {
        fill: #ff9d00;
      }

      .maxime-cls--2, .maxime-cls--3 {
        fill: #66382b;
      }

      .maxime-cls--2, .maxime-cls--4, .maxime-cls--5 {
        stroke-miterlimit: 10;
      }

      .maxime-cls--2, .maxime-cls--5 {
        stroke: #000;
        stroke-width: .25px;
      }

      .maxime-cls--6 {
        fill: #fff;
      }

      .maxime-cls--4 {
        stroke: #3b0700;
        stroke-width: .1px;
      }

      .maxime-cls--4, .maxime-cls--5 {
        fill: none;
      }

      .maxime-cls--7 {
        fill: #ffd29f;
      }

      .maxime-cls--8 {
        fill: #ffbf84;
      }

      .maxime-cls--9 {
        fill: #0a3d08;
      }
    </style>
  </defs>
  <path id="cheveux" class="maxime-cls--2" d="M117.59,131.79c-8.2,1.8-64.54-7.68-62.04-46.68,.6-8.7,3.75-18.81,10.95-24.71,24.4-19.8,75.18-16.18,80.58,26.22-6.63,48.22-57.48,52.01-61.78,55.51-6.05,4.94,17.8-6.13,17.8-6.13"/>
  <rect id="cou" class="maxime-cls--8" x="87.36" y="151.03" width="26.9" height="21.93"/>
  <path id="epaule" class="maxime-cls--1" d="M112.64,168.43c-5.15,.37-9.33,.86-12.64,1.47-3.32-.6-7.49-1.1-12.64-1.47-67.92-4.82-74.38,32.26-74.38,32.26H187.03s-6.46-37.08-74.38-32.26Z"/>
  <path id="oreille_gauche" class="maxime-cls--8" d="M61,103.61s-2.1-5.5-5.7,0c-3.6,5.5,0,15.1,0,15.1,0,0,2.6,4.5,5.7,0,3-4.5,0-15.1,0-15.1Z"/>
  <path id="oreille_droite" class="maxime-cls--8" d="M141.2,103.61s2.1-5.5,5.7,0c3.6,5.5,0,15.1,0,15.1,0,0-2.6,4.5-5.7,0-3-4.5,0-15.1,0-15.1Z"/>
  <path id="tete" class="maxime-cls--7" d="M105.5,63.61h-9.1c-19.6,0-35.4,15.3-35.4,34.1v20.5c0,18.9,15.9,34.1,35.4,34.1h9.1c19.6,0,35.4-15.3,35.4-34.1v-20.4c.1-18.9-15.8-34.2-35.4-34.2Z"/>
  <g id="oeil_gauche" data-name="oeil gauche">
    <path class="maxime-cls--6" d="M84.9,95.11c-5.2,0-9.5,3.6-9.5,8s4.3,8,9.5,8,9.5-3.6,9.5-8-4.2-8-9.5-8Zm0,12.5c-2.7,0-4.9-2-4.9-4.4s2.2-4.4,4.9-4.4,4.9,2,4.9,4.4c0,2.4-2.2,4.4-4.9,4.4Z"/>
    <path class="maxime-cls--9" d="M84.9,98.81c-2.7,0-4.9,2-4.9,4.4s2.2,4.4,4.9,4.4,4.9-2,4.9-4.4c0-2.4-2.2-4.4-4.9-4.4Zm-3,4.6c-.4,0-.8-.6-.8-1.2s.3-1.2,.8-1.2,.8,.6,.8,1.2-.4,1.2-.8,1.2Zm3.4,2.1c-1.3,0-2.3-1-2.3-2.3s1-2.3,2.3-2.3,2.3,1,2.3,2.3-1.1,2.3-2.3,2.3Z"/>
    <path class="maxime-cls--6" d="M81.9,100.91c-.4,0-.8,.6-.8,1.2s.3,1.2,.8,1.2,.8-.6,.8-1.2-.4-1.2-.8-1.2Z"/>
    <path d="M85.3,100.91c-1.3,0-2.3,1-2.3,2.3s1,2.3,2.3,2.3,2.3-1,2.3-2.3-1.1-2.3-2.3-2.3Z"/>
  </g>
  <g id="oeil_droite" data-name="oeil droite">
    <path class="maxime-cls--6" d="M116.4,95.11c-5.2,0-9.5,3.6-9.5,8s4.3,8,9.5,8,9.5-3.6,9.5-8-4.2-8-9.5-8Zm0,12.5c-2.7,0-4.9-2-4.9-4.4s2.2-4.4,4.9-4.4,4.9,2,4.9,4.4c0,2.4-2.2,4.4-4.9,4.4Z"/>
    <path id="_vvvvvvv" data-name=" vvvvvvv" class="maxime-cls--9" d="M116.4,98.81c-2.7,0-4.9,2-4.9,4.4s2.2,4.4,4.9,4.4,4.9-2,4.9-4.4c0-2.4-2.2-4.4-4.9-4.4Zm-3,4.6c-.4,0-.8-.6-.8-1.2s.3-1.2,.8-1.2,.8,.6,.8,1.2-.4,1.2-.8,1.2Zm3.4,2.1c-1.3,0-2.3-1-2.3-2.3s1-2.3,2.3-2.3,2.3,1,2.3,2.3-1.1,2.3-2.3,2.3Z"/>
    <path class="maxime-cls--6" d="M113.4,100.91c-.4,0-.8,.6-.8,1.2s.3,1.2,.8,1.2,.8-.6,.8-1.2-.4-1.2-.8-1.2Z"/>
    <path d="M116.8,100.91c-1.3,0-2.3,1-2.3,2.3s1,2.3,2.3,2.3,2.3-1,2.3-2.3-1.1-2.3-2.3-2.3Z"/>
  </g>
  <path id="bouche" class="maxime-cls--6" d="M116.8,136.01c-18,13.8-31.5,0-31.5,0"/>
  <path id="nez" class="maxime-cls--4" d="M100.4,111.01s-7.6,14.5-2.8,15.2c4.7,.8,5.5-.9,5.5-.9"/>
  <path id="sourcil_gauche" data-name="sourcil gauche" class="maxime-cls--3" d="M94.4,95.51v-2.4s-12.2-4-19,2.4,3.1,0,3.1,0c0,0,6.1-3.6,15.9,0Z"/>
  <path id="sourcil_droite" data-name="sourcil droite" class="maxime-cls--3" d="M106.9,95.41v-2.4s12.2-4,19,2.4-3.1,0-3.1,0c0,0-6.1-3.6-15.9,0Z"/>
  <g id="lunettes">
    <path class="maxime-cls--5" d="M71.8,107.31s11.8,18.1,24.7,0c12.9-18.1-37.1-18.1-24.7,0Z"/>
    <path class="maxime-cls--5" d="M131.2,102.21h0c1-12.8-37.9-11.1-26.8,5.1,0,0,11.8,18.1,24.7,0,1.3-1.9,2-3.6,2.1-5.1h0Z"/>
    <path class="maxime-cls--5" d="M98.6,102.11s1.8,1.9,3.8,0"/>
    <line class="maxime-cls--5" x1="69.8" y1="102.51" x2="61" y2="103.01"/>
    <line class="maxime-cls--5" x1="140.9" y1="103.71" x2="131.2" y2="102.51"/>
  </g>
  <path id="meche" class="maxime-cls--3" d="M140.9,96.12s-14.02-25.34-26.7-26.46c-.23-.02-.48-.12-1.6-.22-4.53-.43-17.39-3.51-22.8-1.68-1.91,.64-7.64,5.61-8.7,5.08-12.5-6.17-17.79,24.28-20.1,24.88-1.11,.29-2.05-13.35-2.05-13.35l10.86-16.63,15.49-6.24,19.19-1.89h10.77l11.72,4,9.07,5.82,6.62,13.98-1.77,12.7Z"/>
  <path id="moustache" class="maxime-cls--3" d="M83.81,131.7l-1.01-1.47s17.26-3.33,35.4,0l-.51,1.47"/>
  <path id="barbe" class="maxime-cls--3" d="M88.9,148.1h24.4l-4.13,3.5s-11.59,1.61-15.67,0"/>
</svg>