<?xml version="1.0" encoding="UTF-8"?>
<svg id="oliventhan" xmlns="http://www.w3.org/2000/svg" viewBox="0 0 200 200">
  <defs>
    <style>
      .oliventhan-cls--1 {
        fill: #fff;
      }

      .oliventhan-cls--2 {
        stroke: #000;
        stroke-width: .25px;
      }

      .oliventhan-cls--2, .oliventhan-cls--3 {
        stroke-miterlimit: 10;
      }

      .oliventhan-cls--4 {
        fill: #a06d47;
      }

      .oliventhan-cls--5 {
        fill: #0b1160;
      }

      .oliventhan-cls--3 {
        fill: none;
        stroke: #3b0700;
        stroke-width: .1px;
      }

      .oliventhan-cls--6 {
        fill: #b77a51;
      }

      .oliventhan-cls--7 {
        fill: #6d4a2f;
      }
    </style>
  </defs>
  <path id="cheveux" class="oliventhan-cls--2" d="M118.22,131c-8.2,1.8-63.5-6.6-61-45.6,.6-8.7,4.3-18.8,11.5-24.7,26.9-19.3,80.7-12.7,77.8,28.1-6.6,48.2-56.2,49-60.5,52.5-6.1,4.9,17.8-6.1,17.8-6.1"/>
  <rect id="cou" class="oliventhan-cls--4" x="87.52" y="150.4" width="26.9" height="21.9"/>
  <path id="epaule" class="oliventhan-cls--5" d="M112.82,167.7c-5.2,.4-9.3,.9-12.6,1.5-3.3-.6-7.5-1.1-12.6-1.5-68-4.8-74.5,32.3-74.5,32.3H187.22s-6.5-37.1-74.4-32.3Z"/>
  <path id="oreille_gauche" class="oliventhan-cls--4" d="M61.62,102.8s-2.1-5.5-5.7,0c-3.6,5.5,0,15.1,0,15.1,0,0,2.6,4.5,5.7,0,3-4.5,0-15.1,0-15.1Z"/>
  <path id="oreille_droite" class="oliventhan-cls--4" d="M141.82,102.8s2.1-5.5,5.7,0c3.6,5.5,0,15.1,0,15.1,0,0-2.6,4.5-5.7,0-3-4.5,0-15.1,0-15.1Z"/>
  <path id="tete" class="oliventhan-cls--6" d="M106.12,62.8h-9.1c-19.6,0-35.4,15.3-35.4,34.1v20.5c0,18.9,15.9,34.1,35.4,34.1h9.1c19.6,0,35.4-15.3,35.4-34.1v-20.4c.1-18.9-15.8-34.2-35.4-34.2Z"/>
  <g id="oeil_gauche" data-name="oeil gauche">
    <path class="oliventhan-cls--1" d="M85.52,94.3c-5.2,0-9.5,3.6-9.5,8s4.3,8,9.5,8,9.5-3.6,9.5-8-4.2-8-9.5-8Zm0,12.5c-2.7,0-4.9-2-4.9-4.4s2.2-4.4,4.9-4.4,4.9,2,4.9,4.4c0,2.4-2.2,4.4-4.9,4.4Z"/>
    <path class="oliventhan-cls--7" d="M85.52,98c-2.7,0-4.9,2-4.9,4.4s2.2,4.4,4.9,4.4,4.9-2,4.9-4.4c0-2.4-2.2-4.4-4.9-4.4Zm-3,4.6c-.4,0-.8-.6-.8-1.2s.3-1.2,.8-1.2,.8,.6,.8,1.2-.4,1.2-.8,1.2Zm3.4,2.1c-1.3,0-2.3-1-2.3-2.3s1-2.3,2.3-2.3,2.3,1,2.3,2.3-1.1,2.3-2.3,2.3Z"/>
    <path class="oliventhan-cls--1" d="M82.52,100.1c-.4,0-.8,.6-.8,1.2s.3,1.2,.8,1.2,.8-.6,.8-1.2-.4-1.2-.8-1.2Z"/>
    <path d="M85.92,100.1c-1.3,0-2.3,1-2.3,2.3s1,2.3,2.3,2.3,2.3-1,2.3-2.3-1.1-2.3-2.3-2.3Z"/>
  </g>
  <g id="oeil_droite" data-name="oeil droite">
    <path class="oliventhan-cls--1" d="M117.02,94.3c-5.2,0-9.5,3.6-9.5,8s4.3,8,9.5,8,9.5-3.6,9.5-8-4.2-8-9.5-8Zm0,12.5c-2.7,0-4.9-2-4.9-4.4s2.2-4.4,4.9-4.4,4.9,2,4.9,4.4c0,2.4-2.2,4.4-4.9,4.4Z"/>
    <path id="_vvvvvvv" data-name=" vvvvvvv" class="oliventhan-cls--7" d="M117.02,98c-2.7,0-4.9,2-4.9,4.4s2.2,4.4,4.9,4.4,4.9-2,4.9-4.4c0-2.4-2.2-4.4-4.9-4.4Zm-3,4.6c-.4,0-.8-.6-.8-1.2s.3-1.2,.8-1.2,.8,.6,.8,1.2-.4,1.2-.8,1.2Zm3.4,2.1c-1.3,0-2.3-1-2.3-2.3s1-2.3,2.3-2.3,2.3,1,2.3,2.3-1.1,2.3-2.3,2.3Z"/>
    <path class="oliventhan-cls--1" d="M114.02,100.1c-.4,0-.8,.6-.8,1.2s.3,1.2,.8,1.2,.8-.6,.8-1.2-.4-1.2-.8-1.2Z"/>
    <path d="M117.42,100.1c-1.3,0-2.3,1-2.3,2.3s1,2.3,2.3,2.3,2.3-1,2.3-2.3-1.1-2.3-2.3-2.3Z"/>
  </g>
  <path id="bouche" class="oliventhan-cls--1" d="M117.42,135.2c-18,13.8-31.5,0-31.5,0"/>
  <path id="nez" class="oliventhan-cls--3" d="M101.02,110.2s-7.6,14.5-2.8,15.2c4.7,.8,5.5-.9,5.5-.9"/>
  <path id="sourcil_gauche" data-name="sourcil gauche" d="M95.02,94.7v-2.4s-12.2-4-19,2.4,3.1,0,3.1,0c0,0,6.1-3.6,15.9,0Z"/>
  <path id="sourcil_droite" data-name="sourcil droite" d="M107.52,94.6v-2.4s12.2-4,19,2.4-3.1,0-3.1,0c0,0-6.1-3.6-15.9,0Z"/>
  <path id="meche" d="M61.62,100.2c-1.25-1.06,1.15-12.05,15.62-18.07,1.9-.79,9.11-2.1,17.01-1.7,3.9,.2,16.76,4.69,21.26,5.29,10.8,1.3,20.31-1.42,26.01,14.68l3.3-13.7-7.8-17.3-16.2-11.8-32.6-2.3-15.7,6.5-11.9,18.6-2,11.8,3,8Z"/>
</svg>